# xmcd
#
# Track frame offsets: 
#        150
#        12963
#        40880
#        55265
#        70970
#        94348
#        107450
#        127020
#        142695
#        164238
#
# Disc length: 2570 seconds
#
# Revision: 4
# Processed by: cddbd v1.5.2PL0 Copyright (c) Steve Scherf et al.
# Submitted via: ExactAudioCopy v1.0b2
#
DISCID=890a080a
DTITLE=Old And In The Way - Old And In The Way
DYEAR=1975
DGENRE=Bluegrass
TTITLE0=Pig In A Pen
TTITLE1=Midnight Moonlight
TTITLE2=Old And In The Way
TTITLE3=Knockin' On Your Door
TTITLE4=The Hobo Song
TTITLE5=Panama Red
TTITLE6=Wild Horses
TTITLE7=Kissimmee Kid
TTITLE8=White Dove
TTITLE9=Land Of The Navajo
EXTD=Jerry Garcia, David Grisman, Peter Rowan, Vassar Clements and Joh
EXTD=n Kahn\n\nRecorded live at the Burning House San Francisco, Oct 8
EXTD=, 1973 YEAR: 1975
EXTT0=
EXTT1=
EXTT2=
EXTT3=
EXTT4=
EXTT5=
EXTT6=
EXTT7=
EXTT8=
EXTT9=
PLAYORDER=
